<svg xmlns="http://www.w3.org/2000/svg" width="70.42" height="21.413" viewBox="0 0 70.42 21.413">
  <g id="Сгруппировать_1" data-name="Сгруппировать 1" transform="translate(-345.66 -277.52)">
    <path id="Контур_5" data-name="Контур 5" d="M59.011-3.859h4.377v8.4a12.506,12.506,0,0,1-3.9,1.952,15.157,15.157,0,0,1-4.466.68,12.1,12.1,0,0,1-5.8-1.375,10.238,10.238,0,0,1-4.037-3.815A10.511,10.511,0,0,1,43.72-3.534a10.511,10.511,0,0,1,1.464-5.516,10.188,10.188,0,0,1,4.067-3.815,12.339,12.339,0,0,1,5.856-1.375,12.815,12.815,0,0,1,4.939.917,9.787,9.787,0,0,1,3.727,2.662L60.7-7.822a7.114,7.114,0,0,0-5.353-2.336,7.307,7.307,0,0,0-3.52.828,5.941,5.941,0,0,0-2.4,2.336,6.877,6.877,0,0,0-.858,3.46A6.817,6.817,0,0,0,49.428-.1a6.067,6.067,0,0,0,2.381,2.351,7.056,7.056,0,0,0,3.475.843A7.765,7.765,0,0,0,59.011,2.2Z" transform="translate(352.307 291.76)" fill="#fff"/>
    <path id="Контур_4" data-name="Контур 4" d="M43.091,6.7,39.1.936H34.691V6.7H29.9V-14h8.961a11.5,11.5,0,0,1,4.776.917,7.1,7.1,0,0,1,3.12,2.6,7.17,7.17,0,0,1,1.094,3.993A7.027,7.027,0,0,1,46.743-2.51,7.03,7.03,0,0,1,43.594.048L48.237,6.7ZM43-6.488a3.279,3.279,0,0,0-1.124-2.677A5.032,5.032,0,0,0,38.6-10.1h-3.9V-2.88h3.9a4.976,4.976,0,0,0,3.283-.946A3.289,3.289,0,0,0,43-6.488Z" transform="translate(345.691 292.23)" fill="#fff"/>
    <path id="Контур_3" data-name="Контур 3" d="M20.648-14V6.7H16.714L6.392-5.867V6.7H1.66V-14H5.623L15.915-1.43V-14Z" transform="translate(344 292.23)" fill="#fff"/>
    <path id="Контур_2" data-name="Контур 2" d="M17.82-14h4.791V2.8H32.992V6.7H17.82Z" transform="translate(342.864 292.23)" fill="#fff"/>
  </g>
</svg>
