<svg id="Сгруппировать_5" data-name="Сгруппировать 5" xmlns="http://www.w3.org/2000/svg" width="22.1" height="17.08" viewBox="0 0 22.1 17.08">
  <g id="Сгруппировать_3" data-name="Сгруппировать 3" transform="translate(0 1.863)">
    <path id="Icon_ionic-ios-play" data-name="Icon ionic-ios-play" d="M9,7.1V19.758a.326.326,0,0,0,.488.3l10.036-6.331a.359.359,0,0,0,0-.6L9.488,6.8A.323.323,0,0,0,9,7.1Z" transform="translate(-9 -6.751)" fill="#fff"/>
    <path id="Icon_ionic-ios-play-2" data-name="Icon ionic-ios-play" d="M9,7.1V19.758a.326.326,0,0,0,.488.3l10.036-6.331a.359.359,0,0,0,0-.6L9.488,6.8A.323.323,0,0,0,9,7.1Z" transform="translate(1.684 -6.751)" fill="#fff"/>
  </g>
  <path id="Icon_open-media-stop" data-name="Icon open-media-stop" d="M0,0V17.08H1.464V0Z" transform="translate(20.636)" fill="#fff"/>
</svg>
